<svg width="48" height="48" viewBox="0 0 48 48" fill="none" xmlns="http://www.w3.org/2000/svg">
<g clip-path="url(#clip0_1300_1260)">
<path d="M40 31C37.5 31 35.1 30.6 32.86 29.86C32.16 29.64 31.38 29.8 30.82 30.34L26.42 34.74C20.76 31.86 16.12 27.24 13.24 21.56L17.64 17.14C18.2 16.62 18.36 15.84 18.14 15.14C17.4 12.9 17 10.5 17 8C17 6.9 16.1 6 15 6H8C6.9 6 6 6.9 6 8C6 26.78 21.22 42 40 42C41.1 42 42 41.1 42 40V33C42 31.9 41.1 31 40 31ZM38 24H42C42 14.06 33.94 6 24 6V10C31.74 10 38 16.26 38 24ZM30 24H34C34 18.48 29.52 14 24 14V18C27.32 18 30 20.68 30 24Z" fill="#A21CAF"/>
</g>
<defs>
<clipPath id="clip0_1300_1260">
<rect width="48" height="48" fill="white"/>
</clipPath>
</defs>
</svg>
